<?xml version="1.0" encoding="UTF-8" standalone="no"?>
<!-- Created with Inkscape (http://www.inkscape.org/) -->

<svg
   xmlns:dc="http://purl.org/dc/elements/1.1/"
   xmlns:cc="http://creativecommons.org/ns#"
   xmlns:rdf="http://www.w3.org/1999/02/22-rdf-syntax-ns#"
   xmlns:svg="http://www.w3.org/2000/svg"
   xmlns="http://www.w3.org/2000/svg"
   xmlns:sodipodi="http://sodipodi.sourceforge.net/DTD/sodipodi-0.dtd"
   xmlns:inkscape="http://www.inkscape.org/namespaces/inkscape"
   width="480.01083"
   height="799.99902"
   id="svg3028"
   version="1.1"
   inkscape:version="0.48.4 r9939"
   sodipodi:docname="iDrive Logo.svg">
  <defs
     id="defs3030" />
  <sodipodi:namedview
     id="base"
     pagecolor="#ffffff"
     bordercolor="#666666"
     borderopacity="1.0"
     inkscape:pageopacity="0.0"
     inkscape:pageshadow="2"
     inkscape:zoom="0.54817881"
     inkscape:cx="24.862579"
     inkscape:cy="527.17095"
     inkscape:document-units="px"
     inkscape:current-layer="layer1"
     showgrid="false"
     fit-margin-top="0"
     fit-margin-left="0"
     fit-margin-right="0"
     fit-margin-bottom="0"
     inkscape:window-width="1280"
     inkscape:window-height="660"
     inkscape:window-x="-8"
     inkscape:window-y="-8"
     inkscape:window-maximized="1" />
  <metadata
     id="metadata3033">
    <rdf:RDF>
      <cc:Work
         rdf:about="">
        <dc:format>image/svg+xml</dc:format>
        <dc:type
           rdf:resource="http://purl.org/dc/dcmitype/StillImage" />
        <dc:title></dc:title>
      </cc:Work>
    </rdf:RDF>
  </metadata>
  <g
     inkscape:label="Layer 1"
     inkscape:groupmode="layer"
     id="layer1"
     transform="translate(0.00993486,-252.36717)">
    <path
       style="fill:#ffffff;stroke:#ffffff;stroke-width:0.99999994000000003;stroke-linecap:butt;stroke-linejoin:miter;stroke-miterlimit:4;stroke-opacity:1;stroke-dasharray:none"
       d="M 215 0.5 C 196.50229 0.5972 178.75287 8.86422 178.5 43.46875 L 177.6875 74.875 C 177.8459 77.31406 176.80544 78.6318 175.40625 78.53125 L 171.25 78.6875 C 165.95356 78.97672 166.38692 86.57695 166.4375 92.15625 C 166.4613 96.82984 164.83716 100.54487 161.375 102.71875 C 155.95209 104.96401 145.51606 104.87845 145.5 110.59375 L 146.65625 158.375 L 71.0625 164.90625 C 52.360345 167.09451 53.591968 188.07404 73.78125 193.34375 L 148 212.5625 L 148.78125 245.25 C 149.00388 250.8613 146.68607 253.54784 143.46875 257.84375 L 121.1875 280.96875 C 115.47536 287.07168 115.8654 293.11774 115.75 298.84375 L 115.90625 580.3125 C 116.09513 590.76062 114.73933 608.4499 110.875 608.125 L 86.3125 610.40625 C 45.507523 614.22454 56.350032 653.26213 82.625 655.84375 C 91.039157 656.72606 100.55931 657.59755 110.3125 658.78125 L 110.71875 717.65625 C 111.77266 725.16024 117.55157 732.26105 117.78125 735.71875 L 119.53125 780.75 C 120.35114 797.1825 132.44867 799.6922 149.0625 799.5 L 240.65625 799.0625 L 241.09375 799.0625 L 332.65625 799.5 C 349.27008 799.6922 361.39886 797.1825 362.21875 780.75 L 363.9375 735.71875 C 364.16718 732.26105 369.94608 725.16024 371 717.65625 L 371.4375 658.78125 C 381.19069 657.59755 390.67959 656.72606 399.09375 655.84375 C 425.36872 653.26213 436.21122 614.22454 395.40625 610.40625 L 370.84375 608.125 C 366.97942 608.4499 365.62362 590.76062 365.8125 580.3125 L 365.96875 298.84375 C 365.85335 293.11774 366.24339 287.07168 360.53125 280.96875 L 338.25 257.84375 C 335.03267 253.54784 332.71487 250.8613 332.9375 245.25 L 333.75 212.5625 L 407.9375 193.34375 C 428.12678 188.07404 429.35841 167.09451 410.65625 164.90625 L 335.0625 158.375 L 336.21875 110.59375 C 336.20265 104.87845 325.79791 104.96401 320.375 102.71875 C 316.91284 100.54487 315.25742 96.82984 315.28125 92.15625 C 315.33185 86.57695 315.76519 78.97672 310.46875 78.6875 L 306.3125 78.53125 C 304.91331 78.6318 303.87285 77.31406 304.03125 74.875 L 303.21875 43.46875 C 302.96587 8.86422 285.24771 0.59724 266.75 0.5 L 240.9375 0.53125 L 240.8125 0.53125 L 215 0.5 z M 276.6875 256.65625 C 286.91347 256.65654 295.6092 260.23463 302.75 267.375 C 309.89048 274.51592 313.46858 283.18039 313.46875 293.40625 C 313.46858 303.63261 309.89048 312.32833 302.75 319.46875 C 295.6092 326.60962 286.91347 330.18771 276.6875 330.1875 C 266.46126 330.18771 257.79679 326.60962 250.65625 319.46875 C 243.5155 312.32833 239.9374 303.63261 239.9375 293.40625 C 239.9374 283.18039 243.5155 274.51592 250.65625 267.375 C 257.79679 260.23463 266.46126 256.65654 276.6875 256.65625 z M 259.5 341.03125 C 266.905 341.03145 273.30984 343.50095 278.6875 348.4375 C 284.06489 353.37444 286.74986 359.28025 286.75 366.15625 C 286.74986 371.79842 284.35404 380.42605 279.59375 392.0625 L 241.78125 485.6875 L 271.6875 485.6875 C 293.90271 485.68756 304.99984 493.527 305 509.21875 C 304.99984 519.97383 301.06449 528.34914 293.21875 534.34375 C 285.37271 540.33837 274.41736 543.34375 260.3125 543.34375 L 218.25 543.34375 C 202.73445 543.34375 190.52873 540.15975 181.625 533.8125 C 172.7212 527.46527 168.28123 518.83764 168.28125 507.90625 C 168.28123 502.08798 170.10991 494.67948 173.8125 485.6875 L 217.46875 378.3125 L 220.375 370.90625 C 228.48528 350.98314 241.51604 341.03145 259.5 341.03125 z "
       id="path3028"
       transform="translate(-0.00993486,252.36717)" />
    <rect
       ry="19.612972"
       rx="19.831875"
       y="340.61151"
       x="0.50000018"
       height="173.90831"
       width="55.008152"
       id="rect2991"
       style="fill:#ffffff;stroke:#ffffff;stroke-width:0.99999994000000003;stroke-miterlimit:4;stroke-dasharray:none" />
    <rect
       style="fill:#ffffff;stroke:#ffffff;stroke-width:0.99999994000000003;stroke-miterlimit:4;stroke-dasharray:none"
       id="rect2993"
       width="55.008152"
       height="173.90831"
       x="424.49182"
       y="340.61151"
       rx="19.831875"
       ry="19.612972" />
    <rect
       style="fill:#ffffff;stroke:#ffffff;stroke-width:0.99999994000000003;stroke-miterlimit:4;stroke-dasharray:none"
       id="rect2995"
       width="55.008152"
       height="173.90831"
       x="0.50000018"
       y="791.03357"
       rx="19.831875"
       ry="19.612972" />
    <rect
       ry="19.612972"
       rx="19.831875"
       y="791.03357"
       x="424.49182"
       height="173.90831"
       width="55.008152"
       id="rect2997"
       style="fill:#ffffff;stroke:#ffffff;stroke-width:0.99999994000000003;stroke-miterlimit:4;stroke-dasharray:none" />
  </g>
</svg>
